# xmcd CD database file
#
# Track frame offsets:
#	150
#	23341
#	44759
#	65778
#	86644
#	115380
#	139720
#	157933
#	197590
#	228989
#	246235
#	268760
#	293124
#	319665
#	345835
#	369537
#
# Disc length: 5252 seconds
#
# Revision: 0
# Processed by: cddbd v1.5.2PL0 Copyright (c) Steve Scherf et al.
# Submitted via: CDex 1.51
#
DISCID=e8148210
DTITLE=Leon de Winter - Leo Kaplan
DYEAR=2010
DGENRE=Hörbuch
TTITLE0=Kaplan 18
TTITLE1=Kaplan 19
TTITLE2=Kaplan 20
TTITLE3=Kaplan 21
TTITLE4=Kaplan 22
TTITLE5=Kaplan 23
TTITLE6=Kaplan 24
TTITLE7=Kaplan 25
TTITLE8=Kaplan 26
TTITLE9=Kaplan 27
TTITLE10=Kaplan 28
TTITLE11=Kaplan 29
TTITLE12=Kaplan 30
TTITLE13=Kaplan 31
TTITLE14=Kaplan 32
TTITLE15=Kaplan 33
EXTD=YEAR: 2010
EXTT0=
EXTT1=
EXTT2=
EXTT3=
EXTT4=
EXTT5=
EXTT6=
EXTT7=
EXTT8=
EXTT9=
EXTT10=
EXTT11=
EXTT12=
EXTT13=
EXTT14=
EXTT15=
PLAYORDER=
